<svg xmlns="http://www.w3.org/2000/svg" xmlns:xlink="http://www.w3.org/1999/xlink" version="1.1" width="1000" height="1000" viewBox="0 0 1000 1000" xml:space="preserve">
<desc>Created with Fabric.js 3.5.0</desc>
<defs>
</defs>
<rect x="0" y="0" width="100%" height="100%" fill="rgba(255,255,255,0)"/>
<g transform="matrix(1.7754 0 0 1.7754 500.0024 500.0024)" id="241405">
<g style="" vector-effect="non-scaling-stroke">
		<g transform="matrix(1 0 0 1 -206 -206)">
<rect style="stroke: none; stroke-width: 1; stroke-dasharray: none; stroke-linecap: butt; stroke-dashoffset: 0; stroke-linejoin: miter; stroke-miterlimit: 4; is-custom-font: none; font-file-url: none; fill: rgb(255,255,255); fill-opacity: 0; fill-rule: nonzero; opacity: 0.03;" x="-50" y="-50" rx="0" ry="0" width="100" height="100"/>
</g>
		<g transform="matrix(1.0399 0 0 1.0399 1.0515 -0.3474)" id="Capa_1">
<path style="stroke: none; stroke-width: 1; stroke-dasharray: none; stroke-linecap: butt; stroke-dashoffset: 0; stroke-linejoin: miter; stroke-miterlimit: 4; is-custom-font: none; font-file-url: none; fill: rgb(0,0,0); fill-rule: nonzero; opacity: 0.03;" vector-effect="non-scaling-stroke" transform=" translate(-240.4625, -240.4625)" d="M 469.675 415.325 l -100.2 -100.2 l -7.2 7.2 l -11.1 -11.1 c 56.9 -76.3 50.8 -184.8 -18.5 -254.1 c -76.2 -76.1 -199.5 -76.1 -275.6 0 s -76.1 199.5 0 275.5 c 69.3 69.3 177.8 75.5 254.1 18.5 l 11.1 11.1 l -7.2 7.2 l 100.2 100.2 c 15 15 39.4 15 54.4 0 C 484.675 454.725 484.675 430.425 469.675 415.325 z M 290.275 290.325 c -52.7 52.7 -138.2 52.7 -190.9 0 s -52.7 -138.2 0 -190.9 s 138.2 -52.7 190.9 0 S 342.975 237.625 290.275 290.325 z" stroke-linecap="round"/>
</g>
		<g transform="matrix(1.0399 0 0 1.0399 -46.803 -85.5803)" id="Capa_1">
<path style="stroke: none; stroke-width: 1; stroke-dasharray: none; stroke-linecap: butt; stroke-dashoffset: 0; stroke-linejoin: miter; stroke-miterlimit: 4; is-custom-font: none; font-file-url: none; fill: rgb(0,0,0); fill-rule: nonzero; opacity: 0.03;" vector-effect="non-scaling-stroke" transform=" translate(-194.4443, -158.4999)" d="M 155.675 186.225 c 2 12.9 12 29.4 28.4 35.2 c 6.7 2.4 14.1 2.4 20.8 0 c 16.1 -5.8 26.4 -22.2 28.4 -35.1 c 2.2 -0.2 5 -3.2 8.1 -14.1 c 4.2 -14.9 -0.3 -17.1 -4 -16.7 c 0.7 -2.1 1.3 -4.1 1.6 -6.1 c 6.4 -38.5 -12.6 -39.9 -12.6 -39.9 s -3.1 -6 -11.4 -10.6 c -5.5 -3.3 -13.3 -5.8 -23.5 -5 c -3.3 0.2 -6.4 0.8 -9.3 1.8 l 0 0 c -3.7 1.3 -7.2 3.1 -10.3 5.3 c -3.8 2.4 -7.4 5.4 -10.6 8.7 c -5 5.1 -9.5 11.8 -11.4 20.1 c -1.6 6.2 -1.3 12.6 0.1 19.6 l 0 0 c 0.4 2 0.9 4.1 1.6 6.1 c -3.8 -0.4 -8.3 1.8 -4 16.7 C 150.675 183.025 153.575 186.125 155.675 186.225 z" stroke-linecap="round"/>
</g>
		<g transform="matrix(1.0399 0 0 1.0399 -46.6149 23.6093)" id="Capa_1">
<path style="stroke: none; stroke-width: 1; stroke-dasharray: none; stroke-linecap: butt; stroke-dashoffset: 0; stroke-linejoin: miter; stroke-miterlimit: 4; is-custom-font: none; font-file-url: none; fill: rgb(0,0,0); fill-rule: nonzero; opacity: 0.03;" vector-effect="non-scaling-stroke" transform=" translate(-194.625, -263.5)" d="M 263.375 238.625 c -22.6 -8.6 -36.1 -17.5 -36.1 -17.5 l -17.4 55 l -2.4 7.5 l -7.8 -22.1 c 17.9 -25 -1.4 -26.2 -4.7 -26.2 l 0 0 c 0 0 0 0 -0.1 0 c 0 0 0 0 -0.1 0 c 0 0 0 0 -0.1 0 s 0 0 -0.1 0 l 0 0 c -3.3 0 -22.6 1.2 -4.7 26.2 l -7.8 22.1 l -2.4 -7.5 l -17.4 -55 c 0 0 -13.5 8.8 -36.1 17.5 c -12.2 4.4 -18 11.6 -20.9 22.2 c 3.2 4.4 6.8 8.6 10.8 12.5 c 43.4 43.4 113.7 43.4 157.1 0 c 4 -4 7.6 -8.2 10.8 -12.5 C 281.375 250.225 275.475 243.025 263.375 238.625 z" stroke-linecap="round"/>
</g>
</g>
</g>
</svg>