<svg xmlns="http://www.w3.org/2000/svg"  viewBox="0 0 24 24">
    <g data-name="Layer 2">
        <path fill="#F5F5F5" class="yellow" d="M12,21.75A9.746,9.746,0,0,1,5.814,4.47,9.031,9.031,0,0,1,7.649,3.277a.75.75,0,0,1,.662,1.346,7.584,7.584,0,0,0-1.538,1,8.255,8.255,0,0,0,7.2,14.4,8.475,8.475,0,0,0,1.709-.639.75.75,0,0,1,.68,1.337,9.927,9.927,0,0,1-2.033.758A10.1,10.1,0,0,1,12,21.75Z"/>
        <path fill="#F5F5F5" class="pink" d="M12,13.87a4.173,4.173,0,0,1-.8-.074l-.055-.007a4.2,4.2,0,0,1-1.478-.578A4.435,4.435,0,0,1,7.5,9.38c0-.141.011-.293.023-.434A4.473,4.473,0,0,1,8.83,6.18.75.75,0,0,1,9.89,7.24a2.99,2.99,0,0,0-.874,1.835C9.009,9.173,9,9.28,9,9.38a2.946,2.946,0,0,0,1.437,2.547,2.753,2.753,0,0,0,.912.374c.034,0,.068.009.1.016h0a2.688,2.688,0,0,0,.961.024.75.75,0,1,1,.258,1.478A3.96,3.96,0,0,1,12,13.87Z"/>
        <path fill="#F5F5F5" class="ltblue" d="M6.01,19.46H5.976a.75.75,0,0,1-.715-.783A6.738,6.738,0,0,1,10.176,12.5a5.927,5.927,0,0,1,.978-.191.653.653,0,0,1,.076-.008,4.637,4.637,0,0,1,1.368-.015.715.715,0,0,1,.711.747.782.782,0,0,1-.789.748,3.564,3.564,0,0,0-1.1.009.76.76,0,0,1-.107.01,4.5,4.5,0,0,0-.731.144,5.24,5.24,0,0,0-3.821,4.8A.75.75,0,0,1,6.01,19.46Z"/>
        <path fill="#F5F5F5" class="orange" d="M17,22.75a.75.75,0,0,1-.671-.415l-10-20a.75.75,0,1,1,1.342-.67l10,20a.75.75,0,0,1-.336,1.006A.742.742,0,0,1,17,22.75Z"/>
        <path fill="#F60610" class="red" d="M14.371,13.03a.75.75,0,0,1-.477-1.33,3,3,0,0,0-2.619-5.241A.75.75,0,0,1,10.924,5a4.5,4.5,0,0,1,3.922,7.858A.744.744,0,0,1,14.371,13.03Z"/>
        <path fill="#F60610" class="blue" d="M17.99,19.46a.75.75,0,0,1-.749-.716A5.205,5.205,0,0,0,14.8,14.575a.75.75,0,1,1,.8-1.27,6.7,6.7,0,0,1,3.14,5.371.749.749,0,0,1-.715.783Z"/>
        <path fill="#F60610" class="green" d="M17.991,19.46a.75.75,0,0,1-.5-1.311A8.246,8.246,0,0,0,12,3.75a8.625,8.625,0,0,0-1.971.23A.749.749,0,1,1,9.69,2.52,10.058,10.058,0,0,1,12,2.25a9.745,9.745,0,0,1,6.488,17.021A.747.747,0,0,1,17.991,19.46Z"/>
    </g>
</svg>